<?xml version="1.0" encoding="utf-8"?>
<!-- Generator: Adobe Illustrator 16.0.4, SVG Export Plug-In . SVG Version: 6.00 Build 0)  -->
<!DOCTYPE svg PUBLIC "-//W3C//DTD SVG 1.1//EN" "http://www.w3.org/Graphics/SVG/1.1/DTD/svg11.dtd">
<svg version="1.1" id="Layer_1" xmlns="http://www.w3.org/2000/svg" xmlns:xlink="http://www.w3.org/1999/xlink" x="0px" y="0px"
	 width="60px" height="60px" viewBox="0 0 60 60" enable-background="new 0 0 60 60" xml:space="preserve">
<path fill="#D66E6B" d="M56.37,29.91c0,6.162-1.96,11.832-5.39,16.312l4.76,4.829l-7.07,7.003l-5.25-5.25
	c-3.641,2.1-7.84,3.289-12.53,3.359h-0.98c-15.052,0-26.113-10.502-26.113-25.764v-0.07c0-15.05,10.92-26.882,26.112-26.882
	c15.399,0,26.46,11.13,26.46,26.252L56.37,29.91L56.37,29.91z M43.07,38.38C44.4,36,45.1,33.13,45.1,29.91v-0.35
	c0-8.89-6.02-15.752-15.191-15.752c-8.26,0-14.42,6.72-14.42,15.682v0.35c0,9.452,6.37,15.752,14.56,15.752
	c1.96,0,3.71-0.279,5.32-0.84l-6.3-6.3l7.071-7.07l6.932,7V38.38z"/>
</svg>
