<?xml version="1.0" encoding="utf-8"?>
<!-- Generator: Adobe Illustrator 16.0.4, SVG Export Plug-In . SVG Version: 6.00 Build 0)  -->
<!DOCTYPE svg PUBLIC "-//W3C//DTD SVG 1.1//EN" "http://www.w3.org/Graphics/SVG/1.1/DTD/svg11.dtd">
<svg version="1.1" id="Layer_1" xmlns="http://www.w3.org/2000/svg" xmlns:xlink="http://www.w3.org/1999/xlink" x="0px" y="0px"
	 width="60px" height="60px" viewBox="0 0 60 60" enable-background="new 0 0 60 60" xml:space="preserve">
<path fill="#D66E6B" d="M11.355,46.482l7.28-6.44c2.87,4.479,7.07,6.58,10.782,6.58c5.74,0,10.01-2.66,10.01-7.84v-0.56
	c0.07-5.252-4.479-8.474-11.76-7.492l-2.59,0.629l-2.45-7.629l10.92-10.293h-17.5v-9.94H45.52v7.77L34.038,22.33
	c8.54,0,15.399,7.42,15.399,15.96v0.28c0,10.502-8.47,17.992-20.02,17.992C21.998,56.562,14.646,52.434,11.355,46.482L11.355,46.482
	z"/>
</svg>
