<?xml version="1.0" encoding="utf-8"?>
<!-- Generator: Adobe Illustrator 16.0.4, SVG Export Plug-In . SVG Version: 6.00 Build 0)  -->
<!DOCTYPE svg PUBLIC "-//W3C//DTD SVG 1.1//EN" "http://www.w3.org/Graphics/SVG/1.1/DTD/svg11.dtd">
<svg version="1.1" id="Layer_1" xmlns="http://www.w3.org/2000/svg" xmlns:xlink="http://www.w3.org/1999/xlink" x="0px" y="0px"
	 width="60px" height="60px" viewBox="0 0 60 60" enable-background="new 0 0 60 60" xml:space="preserve">
<path fill="#D66E6B" d="M12.09,47.184l7.212-6.721c2.1,3.29,5.81,5.95,10.15,5.95c5.603,0,9.239-3.29,9.239-8.263v-0.14
	c0-5.319-3.92-8.54-8.75-8.54c-2.8,0-5.6,1.259-8.12,3.849l-7.21-2.379l2.8-27.44h27.441v10.01h-18.76l-1.19,8.82
	c2.03-1.4,4.48-1.89,6.93-1.89c9.8,0,17.012,7.35,17.012,17.575v0.069c0,11.062-7.77,18.342-19.392,18.342
	c-7.492,0-14.073-3.989-17.363-9.239L12.09,47.184z"/>
</svg>
