<?xml version="1.0" encoding="utf-8"?>
<!-- Generator: Adobe Illustrator 16.0.4, SVG Export Plug-In . SVG Version: 6.00 Build 0)  -->
<!DOCTYPE svg PUBLIC "-//W3C//DTD SVG 1.1//EN" "http://www.w3.org/Graphics/SVG/1.1/DTD/svg11.dtd">
<svg version="1.1" id="Layer_1" xmlns="http://www.w3.org/2000/svg" xmlns:xlink="http://www.w3.org/1999/xlink" x="0px" y="0px"
	 width="60px" height="60px" viewBox="0 0 60 60" enable-background="new 0 0 60 60" xml:space="preserve">
<path fill="#D66E6B" d="M48.215,38.87v0.142c0,10.01-8.119,18.062-17.712,18.062c-9.52,0-17.712-7.84-17.712-17.922v-0.141
	c0-3.71,1.19-7.142,3.08-10.012L30.088,4.497h10.92l-9.869,16.592c9.239,0.35,17.082,8.12,17.082,17.78L48.215,38.87z
	 M38.835,38.939c0-4.969-4.132-8.609-8.402-8.609c-4.34,0-8.26,3.641-8.26,8.609v0.141c0,5.042,4.13,8.752,8.4,8.752
	c4.34,0,8.26-3.641,8.26-8.75v-0.141L38.835,38.939z"/>
</svg>
