<?xml version="1.0" encoding="utf-8"?>
<!-- Generator: Adobe Illustrator 16.0.4, SVG Export Plug-In . SVG Version: 6.00 Build 0)  -->
<!DOCTYPE svg PUBLIC "-//W3C//DTD SVG 1.1//EN" "http://www.w3.org/Graphics/SVG/1.1/DTD/svg11.dtd">
<svg version="1.1" id="Layer_1" xmlns="http://www.w3.org/2000/svg" xmlns:xlink="http://www.w3.org/1999/xlink" x="0px" y="0px"
	 width="60px" height="60px" viewBox="0 0 60 60" enable-background="new 0 0 60 60" xml:space="preserve">
<path fill="#D66E6B" d="M48.074,18.43c0,4.9-3.221,8.96-6.93,11.13c4.41,2.17,7.91,6.719,7.91,12.18
	c0,8.332-6.511,15.683-18.413,15.683c-12.32,0-18.692-7.35-18.692-15.682c0-5.601,3.64-10.15,8.052-12.32
	c-3.71-2.17-6.932-6.16-6.932-11.27c0-8.68,7.49-15.05,17.502-15.05C40.514,3.101,48.074,9.541,48.074,18.43L48.074,18.43z
	 M22.102,41.109c0,4.272,3.15,7.562,8.54,7.562s8.471-3.22,8.471-7.561c0-4.199-3.639-7.562-8.539-7.562
	C25.742,33.55,22.102,36.91,22.102,41.109z M23.782,18.29c0,3.71,2.87,6.23,6.86,6.23c4.06,0,6.86-2.52,6.86-6.23
	c0-3.36-2.52-6.092-6.86-6.092s-6.86,2.73-6.86,6.09V18.29z"/>
</svg>
