<?xml version="1.0" encoding="utf-8"?>
<!-- Generator: Adobe Illustrator 16.0.4, SVG Export Plug-In . SVG Version: 6.00 Build 0)  -->
<!DOCTYPE svg PUBLIC "-//W3C//DTD SVG 1.1//EN" "http://www.w3.org/Graphics/SVG/1.1/DTD/svg11.dtd">
<svg version="1.1" id="Layer_1" xmlns="http://www.w3.org/2000/svg" xmlns:xlink="http://www.w3.org/1999/xlink" x="0px" y="0px"
	 width="60px" height="60px" viewBox="0 0 60 60" enable-background="new 0 0 60 60" xml:space="preserve">
<path fill="#D66E6B" d="M48.145,22.65c0,3.01-0.699,5.81-1.959,8.26l-0.141,0.21l-0.63,1.12L30.923,57.163h-10.92l9.87-16.593
	c-9.24-0.279-17.082-8.049-17.082-17.779v-0.14c0-10.01,8.126-18.06,17.717-18.06c9.45,0,17.643,7.84,17.643,17.92v0.14
	L48.145,22.65z M30.572,31.4c4.27,0,8.19-3.71,8.19-8.68v-0.14c0-5.042-4.06-8.752-8.33-8.752c-4.41,0-8.26,3.71-8.26,8.75v0.14
	C22.172,27.688,26.232,31.4,30.572,31.4z"/>
</svg>
