<?xml version="1.0" encoding="utf-8"?>
<!-- Generator: Adobe Illustrator 16.0.4, SVG Export Plug-In . SVG Version: 6.00 Build 0)  -->
<!DOCTYPE svg PUBLIC "-//W3C//DTD SVG 1.1//EN" "http://www.w3.org/Graphics/SVG/1.1/DTD/svg11.dtd">
<svg version="1.1" id="Layer_1" xmlns="http://www.w3.org/2000/svg" xmlns:xlink="http://www.w3.org/1999/xlink" x="0px" y="0px"
	 width="80px" height="60px" viewBox="0 0 80 60" enable-background="new 0 0 80 60" xml:space="preserve">
<path fill="#D66E6B" d="M25.193,56.163h-10.43V14.508l-10.082,3.64L3,9.958l14.492-5.67h7.7L25.193,56.163L25.193,56.163z
	 M35.34,30.75v-0.141c0-13.369,6.723-26.393,21.633-26.393c14.982,0,21.703,12.95,21.703,26.393v0.141
	c0,13.652-6.72,26.395-21.703,26.395C42.062,57.145,35.341,44.473,35.34,30.75L35.34,30.75z M67.334,30.82V30.68
	c0-9.1-2.8-17.082-10.43-17.082c-7.492,0-10.152,7.77-10.152,16.94v0.142c0,9.381,2.73,17.084,10.29,17.084
	S67.335,40.27,67.334,30.82L67.334,30.82z"/>
</svg>
