<svg id="Layer_1" data-name="Layer 1" xmlns="http://www.w3.org/2000/svg" viewBox="0 0 218.75 218.76"><g id="Group_13" data-name="Group 13"><g id="Group_12" data-name="Group 12"><path id="Path_5" data-name="Path 5" d="M193.12,17.1H182.85V0H165.78V17.1H53V0H35.88V17.1H25.64A25.67,25.67,0,0,0,0,42.72v150.4a25.68,25.68,0,0,0,25.64,25.64H193.12a25.66,25.66,0,0,0,25.63-25.64V42.72A25.67,25.67,0,0,0,193.12,17.1Zm8.62,176a8.62,8.62,0,0,1-8.62,8.62H25.64A8.62,8.62,0,0,1,17,193.1h0V80.3H201.59Zm0-129.89H17.1V42.7a8.63,8.63,0,0,1,8.63-8.63H36v17.1h17.1v-17H165.78v17.1h17.07V34.17h10.27a8.62,8.62,0,0,1,8.62,8.62h0Z"/></g></g><g id="Group_15" data-name="Group 15"><g id="Group_14" data-name="Group 14"><rect id="Rectangle_20" data-name="Rectangle 20" x="32.48" y="98.26" width="17.1" height="17.1"/></g></g><g id="Group_17" data-name="Group 17"><g id="Group_16" data-name="Group 16"><rect id="Rectangle_21" data-name="Rectangle 21" x="66.65" y="98.26" width="17.1" height="17.1"/></g></g><g id="Group_19" data-name="Group 19"><g id="Group_18" data-name="Group 18"><rect id="Rectangle_22" data-name="Rectangle 22" x="100.83" y="98.26" width="17.1" height="17.1"/></g></g><g id="Group_21" data-name="Group 21"><g id="Group_20" data-name="Group 20"><rect id="Rectangle_23" data-name="Rectangle 23" x="135.01" y="98.26" width="17.1" height="17.1"/></g></g><g id="Group_23" data-name="Group 23"><g id="Group_22" data-name="Group 22"><rect id="Rectangle_24" data-name="Rectangle 24" x="169.18" y="98.26" width="17.1" height="17.1"/></g></g><g id="Group_25" data-name="Group 25"><g id="Group_24" data-name="Group 24"><rect id="Rectangle_25" data-name="Rectangle 25" x="32.48" y="132.44" width="17.1" height="17.1"/></g></g><g id="Group_27" data-name="Group 27"><g id="Group_26" data-name="Group 26"><rect id="Rectangle_26" data-name="Rectangle 26" x="66.65" y="132.44" width="17.1" height="17.1"/></g></g><g id="Group_29" data-name="Group 29"><g id="Group_28" data-name="Group 28"><rect id="Rectangle_27" data-name="Rectangle 27" x="100.83" y="132.44" width="17.1" height="17.1"/></g></g><g id="Group_31" data-name="Group 31"><g id="Group_30" data-name="Group 30"><rect id="Rectangle_28" data-name="Rectangle 28" x="135.01" y="132.44" width="17.1" height="17.1"/></g></g><g id="Group_33" data-name="Group 33"><g id="Group_32" data-name="Group 32"><rect id="Rectangle_29" data-name="Rectangle 29" x="32.48" y="166.64" width="17.1" height="17.1"/></g></g><g id="Group_35" data-name="Group 35"><g id="Group_34" data-name="Group 34"><rect id="Rectangle_30" data-name="Rectangle 30" x="66.65" y="166.64" width="17.1" height="17.1"/></g></g><g id="Group_37" data-name="Group 37"><g id="Group_36" data-name="Group 36"><rect id="Rectangle_31" data-name="Rectangle 31" x="100.83" y="166.64" width="17.1" height="17.1"/></g></g><g id="Group_39" data-name="Group 39"><g id="Group_38" data-name="Group 38"><rect id="Rectangle_32" data-name="Rectangle 32" x="135.01" y="166.64" width="17.1" height="17.1"/></g></g><g id="Group_41" data-name="Group 41"><g id="Group_40" data-name="Group 40"><rect id="Rectangle_33" data-name="Rectangle 33" x="169.18" y="132.44" width="17.1" height="17.1"/></g></g></svg>