<?xml version="1.0" encoding="utf-8"?>
<!-- Generator: Adobe Illustrator 16.0.4, SVG Export Plug-In . SVG Version: 6.00 Build 0)  -->
<!DOCTYPE svg PUBLIC "-//W3C//DTD SVG 1.1//EN" "http://www.w3.org/Graphics/SVG/1.1/DTD/svg11.dtd">
<svg version="1.1" id="Layer_1" xmlns="http://www.w3.org/2000/svg" xmlns:xlink="http://www.w3.org/1999/xlink" x="0px" y="0px"
	 width="96px" height="96px" viewBox="12 12 96 96" enable-background="new 12 12 96 96" xml:space="preserve">
<path fill="#FFFFFF" d="M60,12L60,12c2.32,0,4.2,2.687,4.2,6v12c0,3.313-1.88,6-4.2,6l0,0c-2.32,0-4.2-2.687-4.2-6V18
	C55.8,14.687,57.68,12,60,12z">
<animate  fill="remove" restart="always" calcMode="linear" additive="replace" accumulate="none" repeatCount="indefinite" begin="0s" dur="1s" to="0" from="1" attributeName="opacity">
		</animate>
</path>
<path fill="#FFFFFF" d="M84,18.431L84,18.431c2.009,1.16,2.294,4.427,0.637,7.296l-6,10.392c-1.656,2.87-4.628,4.256-6.637,3.096
	l0,0c-2.009-1.16-2.294-4.426-0.637-7.296l6-10.393C79.02,18.657,81.991,17.271,84,18.431z">
<animate  fill="remove" restart="always" calcMode="linear" additive="replace" accumulate="none" repeatCount="indefinite" begin="0.08333333333333333s" dur="1s" to="0" from="1" attributeName="opacity">
		</animate>
</path>
<path fill="#FFFFFF" d="M101.569,36L101.569,36c1.159,2.009-0.227,4.98-3.097,6.637l-10.393,6c-2.869,1.657-6.136,1.372-7.295-0.637
	l0,0c-1.16-2.009,0.227-4.98,3.096-6.637l10.393-6C97.143,33.706,100.409,33.991,101.569,36z">
<animate  fill="remove" restart="always" calcMode="linear" additive="replace" accumulate="none" repeatCount="indefinite" begin="0.16666666666666666s" dur="1s" to="0" from="1" attributeName="opacity">
		</animate>
</path>
<path fill="#FFFFFF" d="M108,60L108,60c0,2.32-2.687,4.2-6,4.2H90c-3.313,0-6-1.88-6-4.2l0,0c0-2.319,2.687-4.2,6-4.2h12
	C105.313,55.8,108,57.681,108,60z">
<animate  fill="remove" restart="always" calcMode="linear" additive="replace" accumulate="none" repeatCount="indefinite" begin="0.25s" dur="1s" to="0" from="1" attributeName="opacity">
		</animate>
</path>
<path fill="#FFFFFF" d="M101.569,84L101.569,84c-1.16,2.009-4.427,2.294-7.296,0.637l-10.393-6
	c-2.869-1.656-4.256-4.628-3.096-6.637l0,0c1.159-2.009,4.426-2.294,7.295-0.637l10.393,6C101.343,79.02,102.729,81.991,101.569,84z
	">
<animate  fill="remove" restart="always" calcMode="linear" additive="replace" accumulate="none" repeatCount="indefinite" begin="0.3333333333333333s" dur="1s" to="0" from="1" attributeName="opacity">
		</animate>
</path>
<path fill="#FFFFFF" d="M84,101.569L84,101.569c-2.009,1.159-4.98-0.227-6.637-3.097l-6-10.393
	c-1.657-2.869-1.372-6.136,0.637-7.295l0,0c2.009-1.16,4.98,0.226,6.637,3.096l6,10.393C86.294,97.143,86.009,100.409,84,101.569z">
<animate  fill="remove" restart="always" calcMode="linear" additive="replace" accumulate="none" repeatCount="indefinite" begin="0.4166666666666667s" dur="1s" to="0" from="1" attributeName="opacity">
		</animate>
</path>
<path fill="#FFFFFF" d="M60,108L60,108c-2.32,0-4.2-2.687-4.2-6V90c0-3.313,1.88-6,4.2-6l0,0c2.32,0,4.2,2.687,4.2,6v12
	C64.2,105.313,62.32,108,60,108z">
<animate  fill="remove" restart="always" calcMode="linear" additive="replace" accumulate="none" repeatCount="indefinite" begin="0.5s" dur="1s" to="0" from="1" attributeName="opacity">
		</animate>
</path>
<path fill="#FFFFFF" d="M36,101.569L36,101.569c-2.009-1.16-2.294-4.427-0.637-7.296l6-10.393c1.657-2.869,4.628-4.256,6.637-3.096
	l0,0c2.009,1.159,2.294,4.426,0.637,7.295l-6,10.393C40.98,101.343,38.009,102.729,36,101.569z">
<animate  fill="remove" restart="always" calcMode="linear" additive="replace" accumulate="none" repeatCount="indefinite" begin="0.5833333333333334s" dur="1s" to="0" from="1" attributeName="opacity">
		</animate>
</path>
<path fill="#FFFFFF" d="M18.431,84L18.431,84c-1.16-2.009,0.227-4.98,3.096-6.637l10.393-6c2.87-1.657,6.136-1.372,7.296,0.637l0,0
	c1.16,2.009-0.227,4.98-3.096,6.637l-10.392,6C22.857,86.294,19.591,86.009,18.431,84z">
<animate  fill="remove" restart="always" calcMode="linear" additive="replace" accumulate="none" repeatCount="indefinite" begin="0.6666666666666666s" dur="1s" to="0" from="1" attributeName="opacity">
		</animate>
</path>
<path fill="#FFFFFF" d="M12,60L12,60c0-2.32,2.687-4.2,6-4.2h12c3.313,0,6,1.88,6,4.2l0,0c0,2.319-2.687,4.2-6,4.2H18
	C14.687,64.2,12,62.319,12,60z">
<animate  fill="remove" restart="always" calcMode="linear" additive="replace" accumulate="none" repeatCount="indefinite" begin="0.75s" dur="1s" to="0" from="1" attributeName="opacity">
		</animate>
</path>
<path fill="#FFFFFF" d="M18.431,36L18.431,36c1.16-2.009,4.427-2.294,7.296-0.637l10.392,6c2.87,1.657,4.256,4.628,3.096,6.637l0,0
	c-1.16,2.009-4.426,2.294-7.296,0.637l-10.393-6C18.657,40.98,17.271,38.009,18.431,36z">
<animate  fill="remove" restart="always" calcMode="linear" additive="replace" accumulate="none" repeatCount="indefinite" begin="0.8333333333333334s" dur="1s" to="0" from="1" attributeName="opacity">
		</animate>
</path>
<path fill="#FFFFFF" d="M36,18.431L36,18.431c2.009-1.16,4.98,0.227,6.637,3.096l6,10.393c1.657,2.87,1.372,6.136-0.637,7.296l0,0
	c-2.009,1.16-4.98-0.226-6.637-3.096l-6-10.392C33.706,22.857,33.991,19.591,36,18.431z">
<animate  fill="remove" restart="always" calcMode="linear" additive="replace" accumulate="none" repeatCount="indefinite" begin="0.9166666666666666s" dur="1s" to="0" from="1" attributeName="opacity">
		</animate>
</path>
</svg>
