<svg xmlns="http://www.w3.org/2000/svg" width="101.389" height="39.063" viewBox="0 0 101.389 39.063"><g transform="translate(0.002 -35.941)"><g transform="translate(-0.002 35.941)"><path d="M130.694.12h2.749l2.607,6.223L138.617.12h2.749V10.27h-2.621v-4.8l-1.961,4.8h-1.508l-1.97-4.8v4.8H130.68Z" transform="translate(-69.738 -0.064)" fill="#fff"/><path d="M159.608.18h2.882L166.252,10.3H163.5l-.536-1.5h-3.84l-.527,1.508H155.85Zm2.543,6.264-1.1-3.034-1.1,3.034Z" transform="translate(-83.175 -0.097)" fill="#fff"/><path d="M180.324.12h4.28c3.423,0,4.729,2.236,4.729,5.041V5.2c0,2.69-1.32,5.068-4.743,5.068h-4.28Zm4.156,7.79c1.59,0,2.213-.939,2.213-2.7V5.179c0-1.929-.623-2.717-2.241-2.717h-1.494V7.919Z" transform="translate(-96.11 -0.064)" fill="#fff"/><path d="M202.7.12h6.929V2.471h-4.294v1.4h3.331V6.219h-3.331v1.7h4.294V10.27H202.7Z" transform="translate(-108.239 -0.064)" fill="#fff"/><path d="M133.551,30.881H130.71V28.53h8.184v2.351h-2.7v7.79h-2.64Z" transform="translate(-69.783 -15.338)" fill="#fff"/><path d="M149,33.469h0a5.233,5.233,0,1,1,10.466-.041v.041a5.233,5.233,0,1,1-10.466,0Zm7.763.027v-.082a2.52,2.52,0,1,0-5.041,0V33.5a2.543,2.543,0,1,0,5.068,0Z" transform="translate(-79.518 -15.167)" fill="#fff"/><path d="M130.71,55.93H134.9c2.621,0,3.886,1.416,3.886,3.574v.028c0,2.268-1.375,3.616-3.927,3.616H133.35V66.08h-2.64Zm3.941,4.867c.981,0,1.563-.179,1.563-1.251v-.027c0-1.045-.582-1.237-1.549-1.237H133.35V60.8Z" transform="translate(-69.785 -30.05)" fill="#007cf7"/><path d="M151.45,55.93h2.635v7.822h4.445V66.1h-7.08Z" transform="translate(-80.87 -30.05)" fill="#007cf7"/><path d="M172.464,56h2.882l3.762,10.123h-2.749l-.527-1.508H172l-.527,1.508H168.72Zm2.543,6.264-1.118-3.034-1.1,3.029Z" transform="translate(-89.831 -30.088)" fill="#007cf7"/><path d="M192.8,61.979,189.59,55.93h2.827l1.682,3.345,1.659-3.345h2.827l-3.167,6.049V66.1h-2.635Z" transform="translate(-101.137 -30.05)" fill="#007cf7"/><rect width="0.981" height="36.061" transform="translate(54.027 0.01)" fill="#007cf7"/><path d="M86.063,7.779v-.2a7.474,7.474,0,0,0-2.273-5.27,7.754,7.754,0,0,0-10.97,0,7.447,7.447,0,0,0-2.291,5.5,7.437,7.437,0,0,0,2.222,5.435,7.424,7.424,0,0,0-2.222,5.43,7.769,7.769,0,0,0,15.525.426v-.6a7.447,7.447,0,0,0-2.223-5.233,7.46,7.46,0,0,0,2.213-5.041C86.054,8.045,86.063,7.912,86.063,7.779Zm-9.907-2.19a2.9,2.9,0,0,1,2.163-.916,3,3,0,0,1,2.209.916,2.969,2.969,0,0,1,.916,2.181,2.974,2.974,0,0,1-.916,2.19,3.024,3.024,0,0,1-2.209.916,2.924,2.924,0,0,1-2.163-.916,2.974,2.974,0,0,1-.916-2.19,2.969,2.969,0,0,1,.916-2.181Zm4.372,15.237a3.024,3.024,0,0,1-2.209.916,2.924,2.924,0,0,1-2.163-.916,3.089,3.089,0,0,1,0-4.372,2.9,2.9,0,0,1,2.163-.916,3,3,0,0,1,2.209.917,3.089,3.089,0,0,1,0,4.372Z" transform="translate(-37.604 -0.02)" fill="#007cf7" opacity="0.94"/><path d="M86.491,26.037l-.05-.055a7.754,7.754,0,0,0-10.97,0l-.05.055.05.05a7.754,7.754,0,0,0,10.97,0Z" transform="translate(-40.245 -12.762)" fill="#007cf7"/><path d="M50.779,7.757v-.2A7.451,7.451,0,0,0,48.51,2.29,7.424,7.424,0,0,0,43.039,0a7.506,7.506,0,0,0-5.5,2.291,7.447,7.447,0,0,0-2.291,5.5,7.456,7.456,0,0,0,2.223,5.435,7.442,7.442,0,0,0-2.223,5.43,7.447,7.447,0,0,0,2.291,5.5,7.538,7.538,0,0,0,5.5,2.291,7.754,7.754,0,0,0,7.731-7.332c0-.142,0-.275,0-.408v-.2a7.447,7.447,0,0,0-2.222-5.233A7.419,7.419,0,0,0,50.76,8.234C50.77,8.023,50.779,7.89,50.779,7.757Zm-9.9-2.19a2.9,2.9,0,0,1,2.163-.916,3.1,3.1,0,0,1,3.093,3.1,2.988,2.988,0,0,1-.916,2.19,3.034,3.034,0,0,1-2.209.916,2.914,2.914,0,0,1-2.163-.916,3.028,3.028,0,0,1,.032-4.372ZM45.248,20.8a3.034,3.034,0,0,1-2.209.916,2.914,2.914,0,0,1-2.163-.916,3.089,3.089,0,0,1,0-4.372,2.9,2.9,0,0,1,2.163-.916A3.1,3.1,0,0,1,45.248,20.8Z" transform="translate(-18.793 0.002)" fill="#007cf7" opacity="0.94"/><path d="M51.207,26.015l-.046-.055a7.424,7.424,0,0,0-5.471-2.291,7.506,7.506,0,0,0-5.5,2.291l-.05.055.05.05a7.538,7.538,0,0,0,5.5,2.291,7.46,7.46,0,0,0,5.471-2.291Z" transform="translate(-21.419 -12.74)" fill="#007cf7"/><path d="M15.515,7.757v-.2a7.437,7.437,0,0,0-2.273-5.27A7.419,7.419,0,0,0,7.789,0,7.492,7.492,0,0,0,2.29,2.29,7.447,7.447,0,0,0,0,7.789a7.456,7.456,0,0,0,2.223,5.4A7.442,7.442,0,0,0,0,18.622a7.447,7.447,0,0,0,2.291,5.5,7.529,7.529,0,0,0,5.5,2.291,7.451,7.451,0,0,0,5.471-2.291,7.424,7.424,0,0,0,2.264-5.077v-.6a7.447,7.447,0,0,0-2.236-5.247A7.419,7.419,0,0,0,15.5,8.151C15.506,8.023,15.515,7.89,15.515,7.757ZM5.608,5.567A2.91,2.91,0,0,1,7.771,4.65a3.02,3.02,0,0,1,2.213.916,3.065,3.065,0,0,1,0,4.372,3.043,3.043,0,0,1-2.213.916,2.928,2.928,0,0,1-2.163-.916,3.065,3.065,0,0,1,0-4.372ZM9.984,20.8a3.043,3.043,0,0,1-2.213.916A2.928,2.928,0,0,1,5.608,20.8a3.1,3.1,0,0,1,0-4.372,2.91,2.91,0,0,1,2.163-.916,3.02,3.02,0,0,1,2.213.916A3.1,3.1,0,0,1,9.984,20.8Z" transform="translate(0.002 0.002)" fill="#007cf7" opacity="0.94"/><path d="M15.911,26.015l-.05-.055a7.419,7.419,0,0,0-5.471-2.291,7.492,7.492,0,0,0-5.5,2.291l-.05.055.073.05a7.529,7.529,0,0,0,5.5,2.291,7.451,7.451,0,0,0,5.471-2.291.522.522,0,0,1,.027-.05Z" transform="translate(-2.621 -12.74)" fill="#007cf7"/><text transform="translate(16.744 36.063)" fill="#007cf7" font-size="11" font-family="'\38 88-Bold', '\38 88'" font-weight="700"><tspan x="0" y="0">poker</tspan></text></g></g></svg>